<svg width="24" height="25" viewBox="0 0 24 25" fill="none" xmlns="http://www.w3.org/2000/svg">
<path fill-rule="evenodd" clip-rule="evenodd" d="M5.29742 2.37271L1.02088 2.24949C0.487785 2.23413 0.0431717 2.65384 0.0278117 3.18694C0.0124517 3.72004 0.432161 4.16465 0.965259 4.18001L3.88933 4.26426L4.69369 7.12484L6.56681 16.1873C6.66283 16.6518 7.07199 16.985 7.54634 16.9848L20.3246 16.9819C20.775 16.9818 21.1698 16.6806 21.2888 16.2462L23.6522 7.62201C23.827 6.98406 23.3453 6.35519 22.6839 6.35773L6.50168 6.41985L5.36805 2.38831L5.29639 2.40846L5.29742 2.37271ZM8.30459 15.0534L6.91898 8.34958L21.4656 8.29374L19.6139 15.0508L8.30459 15.0534Z" fill="#001E63"/>
<path d="M8.8759 22.7786C9.94054 22.7786 10.8036 21.9515 10.8036 20.9313C10.8036 19.911 9.94054 19.0839 8.8759 19.0839C7.81125 19.0839 6.94819 19.911 6.94819 20.9313C6.94819 21.9515 7.81125 22.7786 8.8759 22.7786Z" fill="#001E63"/>
<path d="M17.5506 22.7786C18.6152 22.7786 19.4783 21.9515 19.4783 20.9313C19.4783 19.911 18.6152 19.0839 17.5506 19.0839C16.4859 19.0839 15.6229 19.911 15.6229 20.9313C15.6229 21.9515 16.4859 22.7786 17.5506 22.7786Z" fill="#001E63"/>
</svg>
