<svg width="24" height="25" viewBox="0 0 24 25" fill="none" xmlns="http://www.w3.org/2000/svg">
<path fill-rule="evenodd" clip-rule="evenodd" d="M20.5524 21.2891C20.8222 21.0152 20.8266 20.579 20.5579 20.3039C19.1262 18.8382 14.9704 14.6066 14.742 14.6376C15.4264 13.5507 16.2773 11.6882 16.3082 10.213C16.3859 6.53018 13.421 3.51697 9.81953 3.50009C6.21708 3.48133 3.26716 6.4636 3.24282 10.1464C3.21941 13.832 6.13002 16.8453 9.73246 16.864C11.1218 16.8691 12.475 16.4211 13.5877 15.5876L19.5597 21.3037C19.839 21.571 20.2812 21.5645 20.5524 21.2891ZM4.86049 10.1254C4.87692 7.62596 7.31239 5.15042 9.74331 5.16238C12.1733 5.17526 14.5823 7.67012 14.5668 10.1705C14.5504 12.6736 12.1149 15.1483 9.68399 15.1363C7.25308 15.1234 4.84498 12.6286 4.86049 10.1254Z" fill="#001E62"/>
</svg>
